<mxfile host="app.diagrams.net" modified="2021-11-16T12:39:40.214Z" agent="5.0 (Windows NT 10.0; Win64; x64) AppleWebKit/537.36 (KHTML, like Gecko) Chrome/94.0.4606.81 Safari/537.36 OPR/80.0.4170.63" etag="ZQ9m8QmXRlL-MYr_c7Fz" version="15.7.3" type="github">
  <diagram name="BTL" id="0783ab3e-0a74-02c8-0abd-f7b4e66b4bec">
    <mxGraphModel dx="1781" dy="739" grid="1" gridSize="10" guides="1" tooltips="1" connect="1" arrows="1" fold="1" page="1" pageScale="1" pageWidth="850" pageHeight="1100" background="none" math="0" shadow="0">
      <root>
        <mxCell id="0" />
        <mxCell id="1" parent="0" />
        <mxCell id="jTYNaXpzL4hXQkOfN98h-1" value="GIANGVIEN" style="whiteSpace=wrap;html=1;align=center;" parent="1" vertex="1">
          <mxGeometry x="462" y="290" width="100" height="40" as="geometry" />
        </mxCell>
        <mxCell id="jTYNaXpzL4hXQkOfN98h-2" value="MaGV" style="ellipse;whiteSpace=wrap;html=1;align=center;fontStyle=4;" parent="1" vertex="1">
          <mxGeometry x="372" y="210" width="100" height="40" as="geometry" />
        </mxCell>
        <mxCell id="jTYNaXpzL4hXQkOfN98h-3" value="TenGV" style="ellipse;whiteSpace=wrap;html=1;align=center;" parent="1" vertex="1">
          <mxGeometry x="462" y="160" width="100" height="40" as="geometry" />
        </mxCell>
        <mxCell id="jTYNaXpzL4hXQkOfN98h-6" value="Khoa" style="ellipse;whiteSpace=wrap;html=1;align=center;" parent="1" vertex="1">
          <mxGeometry x="552" y="210" width="100" height="40" as="geometry" />
        </mxCell>
        <mxCell id="jTYNaXpzL4hXQkOfN98h-8" value="" style="endArrow=none;html=1;exitX=0.5;exitY=1;exitDx=0;exitDy=0;" parent="1" source="jTYNaXpzL4hXQkOfN98h-3" edge="1">
          <mxGeometry width="50" height="50" relative="1" as="geometry">
            <mxPoint x="652" y="340" as="sourcePoint" />
            <mxPoint x="512" y="287" as="targetPoint" />
          </mxGeometry>
        </mxCell>
        <mxCell id="jTYNaXpzL4hXQkOfN98h-10" value="" style="endArrow=none;html=1;" parent="1" target="jTYNaXpzL4hXQkOfN98h-6" edge="1">
          <mxGeometry width="50" height="50" relative="1" as="geometry">
            <mxPoint x="512" y="290" as="sourcePoint" />
            <mxPoint x="702" y="290" as="targetPoint" />
          </mxGeometry>
        </mxCell>
        <mxCell id="jTYNaXpzL4hXQkOfN98h-11" value="" style="endArrow=none;html=1;exitX=1;exitY=1;exitDx=0;exitDy=0;" parent="1" source="jTYNaXpzL4hXQkOfN98h-2" edge="1">
          <mxGeometry width="50" height="50" relative="1" as="geometry">
            <mxPoint x="652" y="340" as="sourcePoint" />
            <mxPoint x="512" y="290" as="targetPoint" />
          </mxGeometry>
        </mxCell>
        <mxCell id="jTYNaXpzL4hXQkOfN98h-12" value="KHOA" style="whiteSpace=wrap;html=1;align=center;" parent="1" vertex="1">
          <mxGeometry x="1267.5" y="780" width="100" height="40" as="geometry" />
        </mxCell>
        <mxCell id="jTYNaXpzL4hXQkOfN98h-13" value="MaKhoa" style="ellipse;whiteSpace=wrap;html=1;align=center;fontStyle=4;" parent="1" vertex="1">
          <mxGeometry x="1337.5" y="850" width="100" height="40" as="geometry" />
        </mxCell>
        <mxCell id="jTYNaXpzL4hXQkOfN98h-14" value="TenKhoa" style="ellipse;whiteSpace=wrap;html=1;align=center;" parent="1" vertex="1">
          <mxGeometry x="1197.5" y="850" width="100" height="40" as="geometry" />
        </mxCell>
        <mxCell id="jTYNaXpzL4hXQkOfN98h-15" value="" style="endArrow=none;html=1;entryX=0;entryY=0;entryDx=0;entryDy=0;exitX=0.5;exitY=1;exitDx=0;exitDy=0;" parent="1" source="jTYNaXpzL4hXQkOfN98h-12" target="jTYNaXpzL4hXQkOfN98h-13" edge="1">
          <mxGeometry width="50" height="50" relative="1" as="geometry">
            <mxPoint x="1147.5" y="820" as="sourcePoint" />
            <mxPoint x="1197.5" y="770" as="targetPoint" />
          </mxGeometry>
        </mxCell>
        <mxCell id="jTYNaXpzL4hXQkOfN98h-16" value="" style="endArrow=none;html=1;exitX=0.5;exitY=1;exitDx=0;exitDy=0;" parent="1" source="jTYNaXpzL4hXQkOfN98h-12" target="jTYNaXpzL4hXQkOfN98h-14" edge="1">
          <mxGeometry width="50" height="50" relative="1" as="geometry">
            <mxPoint x="1147.5" y="820" as="sourcePoint" />
            <mxPoint x="1197.5" y="770" as="targetPoint" />
          </mxGeometry>
        </mxCell>
        <mxCell id="jTYNaXpzL4hXQkOfN98h-17" value="MON" style="whiteSpace=wrap;html=1;align=center;" parent="1" vertex="1">
          <mxGeometry x="967" y="520" width="100" height="40" as="geometry" />
        </mxCell>
        <mxCell id="jTYNaXpzL4hXQkOfN98h-18" value="MaMon" style="ellipse;whiteSpace=wrap;html=1;align=center;fontStyle=4;" parent="1" vertex="1">
          <mxGeometry x="1117" y="520" width="100" height="40" as="geometry" />
        </mxCell>
        <mxCell id="jTYNaXpzL4hXQkOfN98h-19" value="TenMon" style="ellipse;whiteSpace=wrap;html=1;align=center;" parent="1" vertex="1">
          <mxGeometry x="897" y="590" width="100" height="40" as="geometry" />
        </mxCell>
        <mxCell id="jTYNaXpzL4hXQkOfN98h-21" value="SoTinChi" style="ellipse;whiteSpace=wrap;html=1;align=center;" parent="1" vertex="1">
          <mxGeometry x="1037" y="590" width="100" height="40" as="geometry" />
        </mxCell>
        <mxCell id="jTYNaXpzL4hXQkOfN98h-26" value="SINHVIEN" style="whiteSpace=wrap;html=1;align=center;" parent="1" vertex="1">
          <mxGeometry x="712.5" y="780" width="100" height="40" as="geometry" />
        </mxCell>
        <mxCell id="jTYNaXpzL4hXQkOfN98h-27" value="TenSV" style="ellipse;whiteSpace=wrap;html=1;align=center;" parent="1" vertex="1">
          <mxGeometry x="712.5" y="880" width="100" height="40" as="geometry" />
        </mxCell>
        <mxCell id="jTYNaXpzL4hXQkOfN98h-28" value="MaSV" style="ellipse;whiteSpace=wrap;html=1;align=center;fontStyle=4;" parent="1" vertex="1">
          <mxGeometry x="622.5" y="850" width="100" height="40" as="geometry" />
        </mxCell>
        <mxCell id="jTYNaXpzL4hXQkOfN98h-30" value="" style="endArrow=none;html=1;exitX=1;exitY=0;exitDx=0;exitDy=0;entryX=0.5;entryY=1;entryDx=0;entryDy=0;" parent="1" source="jTYNaXpzL4hXQkOfN98h-28" target="jTYNaXpzL4hXQkOfN98h-26" edge="1">
          <mxGeometry width="50" height="50" relative="1" as="geometry">
            <mxPoint x="682.5" y="710" as="sourcePoint" />
            <mxPoint x="732.5" y="660" as="targetPoint" />
          </mxGeometry>
        </mxCell>
        <mxCell id="jTYNaXpzL4hXQkOfN98h-31" value="" style="endArrow=none;html=1;entryX=0.5;entryY=1;entryDx=0;entryDy=0;" parent="1" source="jTYNaXpzL4hXQkOfN98h-27" target="jTYNaXpzL4hXQkOfN98h-26" edge="1">
          <mxGeometry width="50" height="50" relative="1" as="geometry">
            <mxPoint x="682.5" y="710" as="sourcePoint" />
            <mxPoint x="732.5" y="660" as="targetPoint" />
          </mxGeometry>
        </mxCell>
        <mxCell id="jTYNaXpzL4hXQkOfN98h-33" value="LOP" style="whiteSpace=wrap;html=1;align=center;" parent="1" vertex="1">
          <mxGeometry x="462" y="520" width="100" height="40" as="geometry" />
        </mxCell>
        <mxCell id="jTYNaXpzL4hXQkOfN98h-34" value="MaLop" style="ellipse;whiteSpace=wrap;html=1;align=center;fontStyle=4;" parent="1" vertex="1">
          <mxGeometry x="342" y="480" width="100" height="40" as="geometry" />
        </mxCell>
        <mxCell id="jTYNaXpzL4hXQkOfN98h-35" value="SoPhong" style="ellipse;whiteSpace=wrap;html=1;align=center;" parent="1" vertex="1">
          <mxGeometry x="272" y="520" width="100" height="40" as="geometry" />
        </mxCell>
        <mxCell id="jTYNaXpzL4hXQkOfN98h-38" value="" style="endArrow=none;html=1;exitX=1;exitY=0.5;exitDx=0;exitDy=0;" parent="1" source="jTYNaXpzL4hXQkOfN98h-35" edge="1">
          <mxGeometry width="50" height="50" relative="1" as="geometry">
            <mxPoint x="442" y="680" as="sourcePoint" />
            <mxPoint x="462" y="540" as="targetPoint" />
          </mxGeometry>
        </mxCell>
        <mxCell id="jTYNaXpzL4hXQkOfN98h-39" value="" style="endArrow=none;html=1;exitX=1;exitY=1;exitDx=0;exitDy=0;entryX=0;entryY=0.5;entryDx=0;entryDy=0;" parent="1" source="jTYNaXpzL4hXQkOfN98h-34" target="jTYNaXpzL4hXQkOfN98h-33" edge="1">
          <mxGeometry width="50" height="50" relative="1" as="geometry">
            <mxPoint x="442" y="680" as="sourcePoint" />
            <mxPoint x="512" y="560" as="targetPoint" />
          </mxGeometry>
        </mxCell>
        <mxCell id="jTYNaXpzL4hXQkOfN98h-42" value="Day" style="shape=rhombus;perimeter=rhombusPerimeter;whiteSpace=wrap;html=1;align=center;" parent="1" vertex="1">
          <mxGeometry x="452" y="400" width="120" height="60" as="geometry" />
        </mxCell>
        <mxCell id="jTYNaXpzL4hXQkOfN98h-43" value="" style="shape=link;html=1;exitX=0.5;exitY=1;exitDx=0;exitDy=0;entryX=0.5;entryY=0;entryDx=0;entryDy=0;" parent="1" source="jTYNaXpzL4hXQkOfN98h-42" target="jTYNaXpzL4hXQkOfN98h-33" edge="1">
          <mxGeometry width="100" relative="1" as="geometry">
            <mxPoint x="732" y="390" as="sourcePoint" />
            <mxPoint x="832" y="390" as="targetPoint" />
          </mxGeometry>
        </mxCell>
        <mxCell id="jTYNaXpzL4hXQkOfN98h-44" value="" style="endArrow=none;html=1;entryX=0.5;entryY=1;entryDx=0;entryDy=0;" parent="1" source="jTYNaXpzL4hXQkOfN98h-42" target="jTYNaXpzL4hXQkOfN98h-1" edge="1">
          <mxGeometry width="50" height="50" relative="1" as="geometry">
            <mxPoint x="752" y="430" as="sourcePoint" />
            <mxPoint x="802" y="380" as="targetPoint" />
          </mxGeometry>
        </mxCell>
        <mxCell id="jTYNaXpzL4hXQkOfN98h-45" value="n" style="text;html=1;strokeColor=none;fillColor=none;align=center;verticalAlign=middle;whiteSpace=wrap;rounded=0;" parent="1" vertex="1">
          <mxGeometry x="517" y="460" width="40" height="20" as="geometry" />
        </mxCell>
        <mxCell id="jTYNaXpzL4hXQkOfN98h-46" value="1" style="text;html=1;strokeColor=none;fillColor=none;align=center;verticalAlign=middle;whiteSpace=wrap;rounded=0;" parent="1" vertex="1">
          <mxGeometry x="517" y="380" width="40" height="20" as="geometry" />
        </mxCell>
        <mxCell id="jTYNaXpzL4hXQkOfN98h-47" value="DANGKY" style="shape=rhombus;perimeter=rhombusPerimeter;whiteSpace=wrap;html=1;align=center;" parent="1" vertex="1">
          <mxGeometry x="702" y="510" width="120" height="60" as="geometry" />
        </mxCell>
        <mxCell id="jTYNaXpzL4hXQkOfN98h-50" value="n" style="text;html=1;strokeColor=none;fillColor=none;align=center;verticalAlign=middle;whiteSpace=wrap;rounded=0;" parent="1" vertex="1">
          <mxGeometry x="957.5" y="770" width="40" height="20" as="geometry" />
        </mxCell>
        <mxCell id="jTYNaXpzL4hXQkOfN98h-51" value="n" style="text;html=1;strokeColor=none;fillColor=none;align=center;verticalAlign=middle;whiteSpace=wrap;rounded=0;" parent="1" vertex="1">
          <mxGeometry x="682" y="510" width="40" height="20" as="geometry" />
        </mxCell>
        <mxCell id="jTYNaXpzL4hXQkOfN98h-52" value="THUOC" style="shape=rhombus;perimeter=rhombusPerimeter;whiteSpace=wrap;html=1;align=center;" parent="1" vertex="1">
          <mxGeometry x="451.5" y="641" width="120" height="60" as="geometry" />
        </mxCell>
        <mxCell id="jTYNaXpzL4hXQkOfN98h-55" value="n" style="text;html=1;strokeColor=none;fillColor=none;align=center;verticalAlign=middle;whiteSpace=wrap;rounded=0;" parent="1" vertex="1">
          <mxGeometry x="512" y="621" width="40" height="20" as="geometry" />
        </mxCell>
        <mxCell id="jTYNaXpzL4hXQkOfN98h-56" value="1" style="text;html=1;strokeColor=none;fillColor=none;align=center;verticalAlign=middle;whiteSpace=wrap;rounded=0;" parent="1" vertex="1">
          <mxGeometry x="511.5" y="701" width="40" height="20" as="geometry" />
        </mxCell>
        <mxCell id="jTYNaXpzL4hXQkOfN98h-57" value="Thuoc" style="shape=rhombus;perimeter=rhombusPerimeter;whiteSpace=wrap;html=1;align=center;" parent="1" vertex="1">
          <mxGeometry x="987.5" y="770" width="120" height="60" as="geometry" />
        </mxCell>
        <mxCell id="jTYNaXpzL4hXQkOfN98h-58" value="" style="shape=link;html=1;exitX=1;exitY=0.5;exitDx=0;exitDy=0;entryX=0;entryY=0.5;entryDx=0;entryDy=0;" parent="1" source="jTYNaXpzL4hXQkOfN98h-26" edge="1" target="jTYNaXpzL4hXQkOfN98h-57">
          <mxGeometry width="100" relative="1" as="geometry">
            <mxPoint x="867.5" y="809.9999999999998" as="sourcePoint" />
            <mxPoint x="867.5" y="750" as="targetPoint" />
          </mxGeometry>
        </mxCell>
        <mxCell id="jTYNaXpzL4hXQkOfN98h-60" value="n" style="text;html=1;strokeColor=none;fillColor=none;align=center;verticalAlign=middle;whiteSpace=wrap;rounded=0;" parent="1" vertex="1">
          <mxGeometry x="762" y="570" width="40" height="20" as="geometry" />
        </mxCell>
        <mxCell id="jTYNaXpzL4hXQkOfN98h-61" value="1" style="text;html=1;strokeColor=none;fillColor=none;align=center;verticalAlign=middle;whiteSpace=wrap;rounded=0;" parent="1" vertex="1">
          <mxGeometry x="1097.5" y="770" width="40" height="20" as="geometry" />
        </mxCell>
        <mxCell id="n_W60Ex10awXs8CcbhlA-5" value="CHUYENNGANH" style="whiteSpace=wrap;html=1;align=center;" parent="1" vertex="1">
          <mxGeometry x="1117" y="290" width="100" height="40" as="geometry" />
        </mxCell>
        <mxCell id="n_W60Ex10awXs8CcbhlA-8" value="MaChuyenNganh" style="ellipse;whiteSpace=wrap;html=1;align=center;fontStyle=4;" parent="1" vertex="1">
          <mxGeometry x="1057" y="220" width="100" height="40" as="geometry" />
        </mxCell>
        <mxCell id="n_W60Ex10awXs8CcbhlA-9" value="TenChuyenNganh" style="ellipse;whiteSpace=wrap;html=1;align=center;" parent="1" vertex="1">
          <mxGeometry x="1177" y="220" width="100" height="40" as="geometry" />
        </mxCell>
        <mxCell id="n_W60Ex10awXs8CcbhlA-10" value="" style="endArrow=none;html=1;rounded=0;entryX=0.61;entryY=1;entryDx=0;entryDy=0;entryPerimeter=0;exitX=0.5;exitY=0;exitDx=0;exitDy=0;" parent="1" source="n_W60Ex10awXs8CcbhlA-5" target="n_W60Ex10awXs8CcbhlA-8" edge="1">
          <mxGeometry width="50" height="50" relative="1" as="geometry">
            <mxPoint x="1027" y="380" as="sourcePoint" />
            <mxPoint x="1077" y="330" as="targetPoint" />
          </mxGeometry>
        </mxCell>
        <mxCell id="n_W60Ex10awXs8CcbhlA-11" value="" style="endArrow=none;html=1;rounded=0;entryX=0.315;entryY=0.996;entryDx=0;entryDy=0;entryPerimeter=0;exitX=0.5;exitY=0;exitDx=0;exitDy=0;" parent="1" source="n_W60Ex10awXs8CcbhlA-5" target="n_W60Ex10awXs8CcbhlA-9" edge="1">
          <mxGeometry width="50" height="50" relative="1" as="geometry">
            <mxPoint x="1027" y="380" as="sourcePoint" />
            <mxPoint x="1077" y="330" as="targetPoint" />
          </mxGeometry>
        </mxCell>
        <mxCell id="n_W60Ex10awXs8CcbhlA-12" value="" style="endArrow=none;html=1;rounded=0;entryX=0.5;entryY=0;entryDx=0;entryDy=0;exitX=0.5;exitY=1;exitDx=0;exitDy=0;" parent="1" source="n_W60Ex10awXs8CcbhlA-13" target="jTYNaXpzL4hXQkOfN98h-12" edge="1">
          <mxGeometry width="50" height="50" relative="1" as="geometry">
            <mxPoint x="1267" y="670" as="sourcePoint" />
            <mxPoint x="977" y="680" as="targetPoint" />
          </mxGeometry>
        </mxCell>
        <mxCell id="n_W60Ex10awXs8CcbhlA-13" value="Co" style="shape=rhombus;perimeter=rhombusPerimeter;whiteSpace=wrap;html=1;align=center;" parent="1" vertex="1">
          <mxGeometry x="1262" y="400" width="110" height="60" as="geometry" />
        </mxCell>
        <mxCell id="n_W60Ex10awXs8CcbhlA-14" value="" style="endArrow=none;html=1;rounded=0;entryX=0.5;entryY=0;entryDx=0;entryDy=0;exitX=0.5;exitY=1;exitDx=0;exitDy=0;" parent="1" target="n_W60Ex10awXs8CcbhlA-13" edge="1">
          <mxGeometry width="50" height="50" relative="1" as="geometry">
            <mxPoint x="1157" y="330" as="sourcePoint" />
            <mxPoint x="1117" y="320" as="targetPoint" />
          </mxGeometry>
        </mxCell>
        <mxCell id="n_W60Ex10awXs8CcbhlA-15" value="" style="endArrow=none;html=1;rounded=0;entryX=0;entryY=0.5;entryDx=0;entryDy=0;exitX=1;exitY=0.5;exitDx=0;exitDy=0;" parent="1" source="n_W60Ex10awXs8CcbhlA-16" target="n_W60Ex10awXs8CcbhlA-5" edge="1">
          <mxGeometry width="50" height="50" relative="1" as="geometry">
            <mxPoint x="1092" y="370" as="sourcePoint" />
            <mxPoint x="1172" y="420" as="targetPoint" />
          </mxGeometry>
        </mxCell>
        <mxCell id="n_W60Ex10awXs8CcbhlA-16" value="Thuoc" style="shape=rhombus;perimeter=rhombusPerimeter;whiteSpace=wrap;html=1;align=center;" parent="1" vertex="1">
          <mxGeometry x="779.5" y="280" width="120" height="60" as="geometry" />
        </mxCell>
        <mxCell id="n_W60Ex10awXs8CcbhlA-17" value="" style="shape=link;html=1;rounded=0;entryX=0;entryY=0.5;entryDx=0;entryDy=0;" parent="1" target="n_W60Ex10awXs8CcbhlA-16" edge="1">
          <mxGeometry width="100" relative="1" as="geometry">
            <mxPoint x="562" y="309.5" as="sourcePoint" />
            <mxPoint x="627" y="310" as="targetPoint" />
          </mxGeometry>
        </mxCell>
        <mxCell id="n_W60Ex10awXs8CcbhlA-18" value="1" style="text;html=1;strokeColor=none;fillColor=none;align=center;verticalAlign=middle;whiteSpace=wrap;rounded=0;" parent="1" vertex="1">
          <mxGeometry x="874.5" y="280" width="40" height="20" as="geometry" />
        </mxCell>
        <mxCell id="n_W60Ex10awXs8CcbhlA-19" value="n" style="text;html=1;strokeColor=none;fillColor=none;align=center;verticalAlign=middle;whiteSpace=wrap;rounded=0;" parent="1" vertex="1">
          <mxGeometry x="759.5" y="280" width="40" height="20" as="geometry" />
        </mxCell>
        <mxCell id="n_W60Ex10awXs8CcbhlA-20" value="1" style="text;html=1;strokeColor=none;fillColor=none;align=center;verticalAlign=middle;whiteSpace=wrap;rounded=0;" parent="1" vertex="1">
          <mxGeometry x="1317" y="460" width="40" height="20" as="geometry" />
        </mxCell>
        <mxCell id="n_W60Ex10awXs8CcbhlA-21" value="n" style="text;html=1;strokeColor=none;fillColor=none;align=center;verticalAlign=middle;whiteSpace=wrap;rounded=0;" parent="1" vertex="1">
          <mxGeometry x="1317" y="380" width="40" height="20" as="geometry" />
        </mxCell>
        <mxCell id="n_W60Ex10awXs8CcbhlA-23" value="MaHK" style="ellipse;whiteSpace=wrap;html=1;align=center;fontStyle=4;" parent="1" vertex="1">
          <mxGeometry x="391.5" y="880" width="100" height="40" as="geometry" />
        </mxCell>
        <mxCell id="n_W60Ex10awXs8CcbhlA-24" value="Nam" style="ellipse;whiteSpace=wrap;html=1;align=center;" parent="1" vertex="1">
          <mxGeometry x="511.5" y="880" width="100" height="40" as="geometry" />
        </mxCell>
        <mxCell id="n_W60Ex10awXs8CcbhlA-26" value="" style="endArrow=none;html=1;rounded=0;entryX=0.5;entryY=0;entryDx=0;entryDy=0;exitX=0.5;exitY=1;exitDx=0;exitDy=0;" parent="1" source="RCU5bz5AnQs6STkZ6Mi2-13" target="n_W60Ex10awXs8CcbhlA-23" edge="1">
          <mxGeometry width="50" height="50" relative="1" as="geometry">
            <mxPoint x="431.5" y="840" as="sourcePoint" />
            <mxPoint x="696.5" y="800" as="targetPoint" />
          </mxGeometry>
        </mxCell>
        <mxCell id="n_W60Ex10awXs8CcbhlA-27" value="" style="endArrow=none;html=1;rounded=0;exitX=0.5;exitY=0;exitDx=0;exitDy=0;entryX=0.5;entryY=1;entryDx=0;entryDy=0;" parent="1" source="n_W60Ex10awXs8CcbhlA-24" target="RCU5bz5AnQs6STkZ6Mi2-13" edge="1">
          <mxGeometry width="50" height="50" relative="1" as="geometry">
            <mxPoint x="646.5" y="850" as="sourcePoint" />
            <mxPoint x="631.5" y="850" as="targetPoint" />
          </mxGeometry>
        </mxCell>
        <mxCell id="n_W60Ex10awXs8CcbhlA-37" value="" style="endArrow=none;html=1;rounded=0;entryX=0;entryY=0.5;entryDx=0;entryDy=0;exitX=1;exitY=0.5;exitDx=0;exitDy=0;" parent="1" source="jTYNaXpzL4hXQkOfN98h-57" target="jTYNaXpzL4hXQkOfN98h-12" edge="1">
          <mxGeometry width="50" height="50" relative="1" as="geometry">
            <mxPoint x="1237.5" y="890" as="sourcePoint" />
            <mxPoint x="1287.5" y="840" as="targetPoint" />
          </mxGeometry>
        </mxCell>
        <mxCell id="n_W60Ex10awXs8CcbhlA-38" value="" style="endArrow=none;html=1;rounded=0;entryX=0.5;entryY=1;entryDx=0;entryDy=0;exitX=0.5;exitY=0;exitDx=0;exitDy=0;" parent="1" source="n_W60Ex10awXs8CcbhlA-39" edge="1">
          <mxGeometry width="50" height="50" relative="1" as="geometry">
            <mxPoint x="1027" y="440" as="sourcePoint" />
            <mxPoint x="1167" y="330" as="targetPoint" />
          </mxGeometry>
        </mxCell>
        <mxCell id="n_W60Ex10awXs8CcbhlA-39" value="Thuoc" style="shape=rhombus;perimeter=rhombusPerimeter;whiteSpace=wrap;html=1;align=center;" parent="1" vertex="1">
          <mxGeometry x="957" y="400" width="120" height="60" as="geometry" />
        </mxCell>
        <mxCell id="n_W60Ex10awXs8CcbhlA-40" value="1" style="text;html=1;strokeColor=none;fillColor=none;align=center;verticalAlign=middle;whiteSpace=wrap;rounded=0;" parent="1" vertex="1">
          <mxGeometry x="1007" y="360" width="40" height="20" as="geometry" />
        </mxCell>
        <mxCell id="n_W60Ex10awXs8CcbhlA-41" value="n" style="text;html=1;strokeColor=none;fillColor=none;align=center;verticalAlign=middle;whiteSpace=wrap;rounded=0;" parent="1" vertex="1">
          <mxGeometry x="1017" y="460" width="40" height="20" as="geometry" />
        </mxCell>
        <mxCell id="n_W60Ex10awXs8CcbhlA-42" value="" style="shape=link;html=1;exitX=0.5;exitY=0;exitDx=0;exitDy=0;" parent="1" edge="1">
          <mxGeometry width="100" relative="1" as="geometry">
            <mxPoint x="1017" y="519.9999999999998" as="sourcePoint" />
            <mxPoint x="1017" y="459.9999999999998" as="targetPoint" />
          </mxGeometry>
        </mxCell>
        <mxCell id="n_W60Ex10awXs8CcbhlA-43" style="edgeStyle=orthogonalEdgeStyle;rounded=0;orthogonalLoop=1;jettySize=auto;html=1;exitX=0.5;exitY=1;exitDx=0;exitDy=0;" parent="1" source="n_W60Ex10awXs8CcbhlA-24" target="n_W60Ex10awXs8CcbhlA-24" edge="1">
          <mxGeometry relative="1" as="geometry" />
        </mxCell>
        <mxCell id="n_W60Ex10awXs8CcbhlA-45" value="SLuongSV" style="ellipse;whiteSpace=wrap;html=1;align=center;" parent="1" vertex="1">
          <mxGeometry x="342" y="560" width="100" height="40" as="geometry" />
        </mxCell>
        <mxCell id="n_W60Ex10awXs8CcbhlA-46" value="" style="endArrow=none;html=1;rounded=0;entryX=0;entryY=0.5;entryDx=0;entryDy=0;exitX=0.721;exitY=0.069;exitDx=0;exitDy=0;exitPerimeter=0;" parent="1" source="n_W60Ex10awXs8CcbhlA-45" target="jTYNaXpzL4hXQkOfN98h-33" edge="1">
          <mxGeometry width="50" height="50" relative="1" as="geometry">
            <mxPoint x="832" y="550" as="sourcePoint" />
            <mxPoint x="882" y="500" as="targetPoint" />
          </mxGeometry>
        </mxCell>
        <mxCell id="n_W60Ex10awXs8CcbhlA-47" value="&lt;font style=&quot;font-size: 24px&quot;&gt;Quản lý thời khoá biểu của Giảng viên và Sinh viên&lt;/font&gt;" style="text;html=1;strokeColor=none;fillColor=none;align=center;verticalAlign=middle;whiteSpace=wrap;rounded=0;" parent="1" vertex="1">
          <mxGeometry x="557.5" y="70" width="582.5" height="20" as="geometry" />
        </mxCell>
        <mxCell id="g_7U7ZOY5ZXnp52fUQS2-1" value="GioiTinh" style="ellipse;whiteSpace=wrap;html=1;align=center;" parent="1" vertex="1">
          <mxGeometry x="802.5" y="850" width="100" height="40" as="geometry" />
        </mxCell>
        <mxCell id="g_7U7ZOY5ZXnp52fUQS2-2" value="" style="endArrow=none;html=1;" parent="1" source="g_7U7ZOY5ZXnp52fUQS2-1" edge="1">
          <mxGeometry width="50" height="50" relative="1" as="geometry">
            <mxPoint x="822.5" y="710" as="sourcePoint" />
            <mxPoint x="762.5" y="820" as="targetPoint" />
          </mxGeometry>
        </mxCell>
        <mxCell id="RCU5bz5AnQs6STkZ6Mi2-1" value="" style="shape=link;html=1;rounded=0;entryX=0;entryY=0.5;entryDx=0;entryDy=0;" edge="1" parent="1" target="jTYNaXpzL4hXQkOfN98h-47">
          <mxGeometry width="100" relative="1" as="geometry">
            <mxPoint x="562" y="539.41" as="sourcePoint" />
            <mxPoint x="662" y="539.41" as="targetPoint" />
          </mxGeometry>
        </mxCell>
        <mxCell id="RCU5bz5AnQs6STkZ6Mi2-2" value="" style="endArrow=none;html=1;rounded=0;entryX=0;entryY=0.5;entryDx=0;entryDy=0;exitX=1;exitY=0.5;exitDx=0;exitDy=0;" edge="1" parent="1" source="jTYNaXpzL4hXQkOfN98h-47" target="jTYNaXpzL4hXQkOfN98h-17">
          <mxGeometry width="50" height="50" relative="1" as="geometry">
            <mxPoint x="937" y="700" as="sourcePoint" />
            <mxPoint x="987" y="650" as="targetPoint" />
          </mxGeometry>
        </mxCell>
        <mxCell id="RCU5bz5AnQs6STkZ6Mi2-6" value="" style="endArrow=none;html=1;rounded=0;entryX=0.5;entryY=1;entryDx=0;entryDy=0;exitX=0.5;exitY=0;exitDx=0;exitDy=0;" edge="1" parent="1" source="jTYNaXpzL4hXQkOfN98h-26" target="jTYNaXpzL4hXQkOfN98h-47">
          <mxGeometry width="50" height="50" relative="1" as="geometry">
            <mxPoint x="1087" y="760" as="sourcePoint" />
            <mxPoint x="1137" y="710" as="targetPoint" />
          </mxGeometry>
        </mxCell>
        <mxCell id="RCU5bz5AnQs6STkZ6Mi2-7" value="" style="endArrow=none;html=1;rounded=0;entryX=0.5;entryY=1;entryDx=0;entryDy=0;exitX=0.5;exitY=0;exitDx=0;exitDy=0;" edge="1" parent="1" source="jTYNaXpzL4hXQkOfN98h-19" target="jTYNaXpzL4hXQkOfN98h-17">
          <mxGeometry width="50" height="50" relative="1" as="geometry">
            <mxPoint x="867" y="670" as="sourcePoint" />
            <mxPoint x="917" y="620" as="targetPoint" />
          </mxGeometry>
        </mxCell>
        <mxCell id="RCU5bz5AnQs6STkZ6Mi2-9" value="" style="endArrow=none;html=1;rounded=0;entryX=0.5;entryY=1;entryDx=0;entryDy=0;exitX=0.5;exitY=0;exitDx=0;exitDy=0;" edge="1" parent="1" source="jTYNaXpzL4hXQkOfN98h-21" target="jTYNaXpzL4hXQkOfN98h-17">
          <mxGeometry width="50" height="50" relative="1" as="geometry">
            <mxPoint x="867" y="670" as="sourcePoint" />
            <mxPoint x="917" y="620" as="targetPoint" />
          </mxGeometry>
        </mxCell>
        <mxCell id="RCU5bz5AnQs6STkZ6Mi2-10" value="" style="endArrow=none;html=1;rounded=0;entryX=1;entryY=0.5;entryDx=0;entryDy=0;exitX=0;exitY=0.5;exitDx=0;exitDy=0;" edge="1" parent="1" source="jTYNaXpzL4hXQkOfN98h-18" target="jTYNaXpzL4hXQkOfN98h-17">
          <mxGeometry width="50" height="50" relative="1" as="geometry">
            <mxPoint x="867" y="670" as="sourcePoint" />
            <mxPoint x="917" y="620" as="targetPoint" />
          </mxGeometry>
        </mxCell>
        <mxCell id="RCU5bz5AnQs6STkZ6Mi2-11" value="1" style="text;html=1;strokeColor=none;fillColor=none;align=center;verticalAlign=middle;whiteSpace=wrap;rounded=0;" vertex="1" parent="1">
          <mxGeometry x="799.5" y="510" width="40" height="20" as="geometry" />
        </mxCell>
        <mxCell id="RCU5bz5AnQs6STkZ6Mi2-12" value="" style="shape=link;html=1;rounded=0;entryX=0.5;entryY=1;entryDx=0;entryDy=0;exitX=0.5;exitY=0;exitDx=0;exitDy=0;" edge="1" parent="1" source="jTYNaXpzL4hXQkOfN98h-52" target="jTYNaXpzL4hXQkOfN98h-33">
          <mxGeometry width="100" relative="1" as="geometry">
            <mxPoint x="792" y="590" as="sourcePoint" />
            <mxPoint x="892" y="590" as="targetPoint" />
          </mxGeometry>
        </mxCell>
        <mxCell id="RCU5bz5AnQs6STkZ6Mi2-13" value="HOCKY" style="whiteSpace=wrap;html=1;align=center;" vertex="1" parent="1">
          <mxGeometry x="461.5" y="780" width="100" height="40" as="geometry" />
        </mxCell>
        <mxCell id="RCU5bz5AnQs6STkZ6Mi2-14" value="" style="endArrow=none;html=1;rounded=0;entryX=0;entryY=0;entryDx=0;entryDy=0;exitX=0.5;exitY=0;exitDx=0;exitDy=0;" edge="1" parent="1" source="RCU5bz5AnQs6STkZ6Mi2-13" target="jTYNaXpzL4hXQkOfN98h-56">
          <mxGeometry width="50" height="50" relative="1" as="geometry">
            <mxPoint x="812" y="740" as="sourcePoint" />
            <mxPoint x="862" y="690" as="targetPoint" />
          </mxGeometry>
        </mxCell>
      </root>
    </mxGraphModel>
  </diagram>
</mxfile>
